:SAMPLES-PER-SECOND 30
:FULLY-SPECIFIED
:DEGREES
171
root  34.8693307 36.53914084 -14.35908671 9.908250809 -2.754662037 5.323314667
lowerback  -7.516240597 -0.04632187262 -0.4767880142
upperback  -4.062699795 0.5758458376 -5.022890091
thorax  0.05937450007 0.4824456275 -4.895619869
lowerneck  -3.99022007 -16.38573074 -10.79580021
upperneck  7.825039864 -22.38360023 11.73239994
head  5.532479286 -10.73476028 3.481055975
lclavicle  0 -4.497500157e-015 -2.743230041e-014
lhumerus  -47.36264801 29.84388351 60.6239357
lradius  0.01362454332 -6.507048965e-006 28.68759918
lwrist  4.824992743e-007 -3.790274832e-007 -30.98870087
lhand  -4.453798173e-031 -37.54880142 -10.57530022
lfingers  90 7.125020027 -90
lthumb  95.09780034 -25.38949752 101.7531678
rclavicle  0 -4.497500157e-015 -2.743230041e-014
rhumerus  29.6799984 -41.48270035 -21.38459969
rradius  -5.16745672e-007 2.214343908e-008 36.80690002
rwrist  -2.867388866e-005 0.06550686061 -172.2769928
rhand  -1.771734989e-031 4.784029961 -7.616950035
rfingers  -90 -7.125020027 -90
rthumb  -85.02642003 -8.484519912 -59.46684463
rfemur  -12.37089539 13.85778904 11.45357037
rtibia  -1.725886345 -2.200203657 20.49081993
rfoot  0.4041668475 -22.20988655 -35.70439529
rtoes  3.875084048 19.63610089 -101.3963487
lfemur  -4.854241371 -18.07393074 -23.97877502
ltibia  6.513541222 -1.017669559 8.15585804
lfoot  0.9824056029 -21.05581665 36.21718597
ltoes  -8.720869976 -18.06899025 -116.3152485
172
root  34.87101878 36.53874435 -14.36431765 9.912249565 -2.754998922 5.32846117
lowerback  -7.540979862 -0.04618228227 -0.4824140668
upperback  -4.053999901 0.5769041181 -5.029880047
thorax  0.08298809826 0.4827038348 -4.898739815
lowerneck  -3.987449884 -16.38664627 -10.77390003
upperneck  7.839930058 -22.39459991 11.70330048
head  5.53166008 -10.73789024 3.468864679
lclavicle  0 -4.497500157e-015 -2.743230041e-014
lhumerus  -47.3512001 29.87940025 60.59859848
lradius  0.01365414448 -6.507048965e-006 28.67234802
lwrist  4.824992743e-007 -3.790274832e-007 -30.99290085
lhand  -4.451798094e-031 -37.51530075 -10.63510036
lfingers  90 7.125020027 -90
lthumb  95.09554972 -25.44926058 101.723054
rclavicle  0 -4.497500157e-015 -2.743230041e-014
rhumerus  29.49910164 -41.32770157 -21.144701
rradius  -5.16745672e-007 2.214343908e-008 36.78310013
rwrist  -2.867388866e-005 0.06487669796 -172.397995
rhand  -1.771622033e-031 4.740180016 -7.438690186
rfingers  -90 -7.125020027 -90
rthumb  -84.94509243 -8.635148667 -59.49601314
rfemur  -12.4274683 13.8965292 11.45006657
rtibia  -1.751478195 -2.176485062 20.56607437
rfoot  0.3747772276 -22.16688347 -35.71674728
rtoes  3.852903831 19.64029916 -101.3303518
lfemur  -4.896327496 -18.07431221 -23.97513962
ltibia  6.498300076 -1.029474497 8.199620247
lfoot  0.9699913263 -21.03816223 36.1868515
ltoes  -8.697385166 -18.08001346 -116.239553
173
root  34.872013 36.53631436 -14.36894635 9.892362595 -2.755398273 5.324193478
lowerback  -7.571461201 -0.04630342871 -0.4856222272
upperback  -4.065470219 0.5773473382 -5.035019875
thorax  0.08815550059 0.4826497734 -4.902070045
lowerneck  -3.975349903 -16.38744354 -10.78600025
upperneck  7.878379822 -22.3918972 11.70800018
head  5.543008327 -10.74026394 3.472029448
lclavicle  0 -4.497500157e-015 -2.743230041e-014
lhumerus  -47.37179947 29.88680077 60.56999969
lradius  0.01366928592 -6.507048965e-006 28.66659927
lwrist  4.824992743e-007 -3.790274832e-007 -31.01099968
lhand  -0 -37.48469925 -10.64169979
lfingers  90 7.125020027 -90
lthumb  95.08271006 -25.45687154 101.6910042
rclavicle  0 -4.497500157e-015 -2.743230041e-014
rhumerus  29.30820084 -41.16410446 -20.90640068
rradius  -5.16745672e-007 2.214343908e-008 36.7881012
rwrist  -2.867388866e-005 0.06424630433 -172.4819946
rhand  -1.771442025e-031 4.669439793 -7.400259972
rfingers  -90 -7.125020027 -90
rthumb  -84.94188203 -8.663678945 -59.56200401
rfemur  -12.41363907 13.93200588 11.45071983
rtibia  -1.752563715 -2.177336454 20.57398796
rfoot  0.360298574 -22.17597008 -35.75818634
rtoes  3.882238788 19.63474127 -101.4176404
lfemur  -4.895737171 -18.0540123 -23.96795654
ltibia  6.490375519 -1.02709806 8.217342377
lfoot  0.9760791659 -21.06613731 36.18552399
ltoes  -8.699772685 -18.07889452 -116.2472463
174
root  34.87226231 36.53162859 -14.37473597 9.864744186 -2.755832434 5.322301388
lowerback  -7.620455265 -0.0466017127 -0.4753744602
upperback  -4.070539951 0.5773079395 -5.046909809
thorax  0.1103349999 0.4823732674 -4.919859886
lowerneck  -3.997900009 -16.38809586 -10.79080009
upperneck  7.927629948 -22.39264297 11.69519997
head  5.560617924 -10.74188519 3.465756178
lclavicle  0 -4.497500157e-015 -2.743230041e-014
lhumerus  -47.39989853 29.92020035 60.54069901
lradius  0.01366942469 -6.507048965e-006 28.67560196
lwrist  4.824992743e-007 -3.790274832e-007 -31.08609962
lhand  -0 -37.44829941 -10.54469967
lfingers  90 7.125020027 -90
lthumb  95.04398143 -25.36320994 101.6428053
rclavicle  0 -4.497500157e-015 -2.743230041e-014
rhumerus  29.08169937 -40.95069885 -20.59569931
rradius  -5.16745672e-007 2.214343908e-008 36.78836441
rwrist  -2.867388866e-005 0.06361572444 -172.6499939
rhand  -1.771493782e-031 4.689889908 -7.321790218
rfingers  -90 -7.125020027 -90
rthumb  -84.89686875 -8.732641804 -59.53599597
rfemur  -12.376688 13.94315434 11.46360111
rtibia  -1.744390965 -2.179532766 20.55550194
rfoot  0.3629514277 -22.1945858 -35.78061676
rtoes  3.881384704 19.63490371 -101.4150987
lfemur  -5.010842323 -18.05214119 -23.91296577
ltibia  6.392650127 -1.020108342 8.446523666
lfoot  1.012582898 -21.17884827 36.21196365
ltoes  -8.695706598 -18.08079991 -116.2341444
175
root  34.87222026 36.53071847 -14.38001648 9.872077942 -2.756274223 5.336171627
lowerback  -7.628089428 -0.04699353874 -0.4604674876
upperback  -4.072232246 0.5769184232 -5.045937538
thorax  0.1143649966 0.4819641411 -4.922269821
lowerneck  -4.016610146 -16.38857269 -10.81130028
upperneck  7.987289906 -22.39499664 11.66230011
head  5.580590725 -10.74326134 3.455015421
lclavicle  0 -4.497500157e-015 -2.743230041e-014
lhumerus  -47.4109993 29.94059944 60.52679825
lradius  0.0136540141 -6.507048965e-006 28.64970207
lwrist  4.824992743e-007 -3.790274832e-007 -31.14179993
lhand  -4.44596016e-031 -37.41719818 -10.4666996
lfingers  90 7.125020027 -90
lthumb  95.01212002 -25.28797094 101.6021641
rclavicle  0 -4.497500157e-015 -2.743230041e-014
rhumerus  28.85419846 -40.65399933 -20.20319748
rradius  -5.16745672e-007 2.214343908e-008 36.78637695
rwrist  -2.867388866e-005 0.06298500299 -172.9129944
rhand  -1.771389417e-031 4.648560047 -7.174099922
rfingers  -90 -7.125020027 -90
rthumb  -84.83089073 -8.85728975 -59.56468851
rfemur  -12.39610195 13.9484911 11.44758415
rtibia  -1.751080632 -2.194448471 20.5747757
rfoot  0.3507873714 -22.21212387 -35.79647064
rtoes  3.881776104 19.63482928 -101.4162635
lfemur  -5.062698364 -18.05698395 -23.90537643
ltibia  6.367013454 -1.018196583 8.502106667
lfoot  1.031479597 -21.22127914 36.23623657
ltoes  -8.656019616 -18.09933869 -116.1063329
176
root  34.87214516 36.53150844 -14.38511976 9.882082939 -2.756815195 5.340016365
lowerback  -7.635278702 -0.04739530012 -0.4685918093
upperback  -4.072695732 0.5763112903 -5.041389942
thorax  0.1159865484 0.4815123379 -4.919340134
lowerneck  -3.998440027 -16.38885117 -10.81330013
upperneck  7.995729923 -22.39722824 11.64780045
head  5.579305172 -10.74407768 3.451659918
lclavicle  0 -4.497500157e-015 -2.743230041e-014
lhumerus  -47.42620087 29.92180061 60.51200104
lradius  0.01362250932 -6.507048965e-006 28.64069939
lwrist  4.824992743e-007 -3.790274832e-007 -31.1868
lhand  -0 -37.41870117 -10.46240044
lfingers  90 7.125020027 -90
lthumb  95.01189128 -25.2837258 101.6034167
rclavicle  0 -4.497500157e-015 -2.743230041e-014
rhumerus  28.69870186 -40.47240067 -19.99630165
rradius  -5.16745672e-007 2.214343908e-008 36.78364944
rwrist  -2.867388866e-005 0.06235418469 -172.9660034
rhand  -1.771580414e-031 4.723919868 -7.538799763
rfingers  -90 -7.125020027 -90
rthumb  -85.00023236 -8.547837055 -59.51951854
rfemur  -12.43196011 13.97460175 11.43636894
rtibia  -1.761505127 -2.202206373 20.60007095
rfoot  0.329780519 -22.21492004 -35.83893585
rtoes  3.872129438 19.63666159 -101.3875565
lfemur  -5.119565487 -18.07232857 -23.89104843
ltibia  6.336749554 -1.018503308 8.572379112
lfoot  1.047010303 -21.25370598 36.26218033
ltoes  -8.64364215 -18.10509876 -116.0664972
177
root  34.87231638 36.53359301 -14.38994821 9.902261734 -2.767399311 5.328734875
lowerback  -7.639829636 -0.04772340879 -0.4805078804
upperback  -4.072285175 0.5756189823 -5.038980007
thorax  0.1165897101 0.4811076224 -4.909890175
lowerneck  -3.977149963 -16.38890076 -10.81649971
upperneck  7.982860088 -22.39760017 11.62010002
head  5.569264412 -10.74402142 3.450702667
lclavicle  0 -4.497500157e-015 -2.743230041e-014
lhumerus  -47.44839859 29.97220039 60.47890091
lradius  0.0135743646 -6.507048965e-006 28.61529922
lwrist  4.824992743e-007 -3.790274832e-007 -31.27219963
lhand  -4.445983938e-031 -37.41759872 -10.39480019
lfingers  90 7.125020027 -90
lthumb  94.99632376 -25.21750307 101.5957852
rclavicle  0 -4.497500157e-015 -2.743230041e-014
rhumerus  28.5997982 -40.34899902 -19.83580017
rradius  -5.16745672e-007 2.214343908e-008 36.78171921
rwrist  -2.867388866e-005 0.0617233105 -173.0599976
rhand  -1.771750501e-031 4.790019989 -7.727749825
rfingers  -90 -7.125020027 -90
rthumb  -85.08196738 -8.389453897 -59.46937626
rfemur  -12.48360729 13.99867916 11.44444656
rtibia  -1.773878694 -2.188011408 20.62366676
rfoot  0.3282813132 -22.17273521 -35.8411293
rtoes  3.880031935 19.63516092 -101.4110729
lfemur  -5.284701347 -18.08012581 -23.82078743
ltibia  6.243446827 -1.019845247 8.794382095
lfoot  1.073152423 -21.34873009 36.27832794
ltoes  -8.648619581 -18.10278367 -116.0825151
